<?xml version="1.0" encoding="utf-8" ?>
<svg baseProfile="full" height="200mm" version="1.1" viewBox="0,0,200,200" width="200mm" xmlns="http://www.w3.org/2000/svg" xmlns:ev="http://www.w3.org/2001/xml-events" xmlns:xlink="http://www.w3.org/1999/xlink"><defs /><rect fill="#1a1a1a" height="200" width="200" x="0" y="0" /><text alignment-baseline="middle" fill="#e1ed5e" style="dominant-baseline: central; font-size:9.0px; font-family:Arial;" text-anchor="middle" x="100.0" y="100.0">2023</text><line stroke="#e1ed5e" stroke-width="0.3" x1="100.0" x2="100.0" y1="15.0" y2="10.0" /><path d="M 100.0 14.0 a86.0,86.0 0 0,1 42.46469731375804,11.215312516191453" fill="none" id="id13" stroke="none" /><text fill="#e1ed5e" style="font-size:6.75px; font-family:Arial;" text-anchor="middle"><textPath startOffset="22.20632615414155" xlink:href="#id13">January</textPath></text><path d="M 110.05341064243156 81.56283822128135 l 28.294725990653305 -51.890294660043466 a80.10325032341527,80.10325032341527 0 0,0 1.2048898649618855,0.6705199053447115 l -29.183739944687225 51.39555935713857" fill="#47fffd" stroke="none" /><line stroke="#e1ed5e" stroke-width="0.3" x1="143.23703022742887" x2="145.7803849466894" y1="26.81831364943548" y2="22.513508569990506" /><path d="M 143.74570117128098 25.957352633546492 a86.0,86.0 0 0,1 28.547481713284135,27.462654790039103" fill="none" id="id14" stroke="none" /><text fill="#e1ed5e" style="font-size:6.75px; font-family:Arial;" text-anchor="middle"><textPath startOffset="19.985693538727396" xlink:href="#id14">February</textPath></text><path d="M 110.68208982089419 81.91981866633111 l 28.70587080556013 -48.58668651991852 a77.43308538163001,77.43308538163001 0 0,0 1.141724788760056,0.6878764103820793 l -29.537957660537828 48.08536350007783" fill="#43ffdb" stroke="none" /><path d="M 115.4437574822437 85.77008943001954 l 39.7576860229339 -36.632815377098176 a75.0614165588616,75.0614165588616 0 0,0 0.8673395272560273,0.9577379690736325 l -40.38236919080597 35.943024620755" fill="#3fffbc" stroke="none" /><path d="M 115.9244219780498 86.31012108654704 l 43.39842756116935 -37.30868342760578 a78.23077296248383,78.23077296248383 0 0,0 0.8690670967069747,1.0287013246279606 l -44.03420527136344 36.556123153348715" fill="#44ffe6" stroke="none" /><path d="M 116.82858285166822 87.43820079747576 l 47.06669430292896 -35.133223526387184 a79.73344113842174,79.73344113842174 0 0,0 0.8115246382964195,1.1069186946265843 l -47.664481553739 34.317842388089105" fill="#46fff9" stroke="none" /><line stroke="#e1ed5e" stroke-width="0.3" x1="172.23445277983987" x2="176.4835382374775" y1="55.19839476539836" y2="52.563006222186495" /><path d="M 173.08426987136738 54.67131705675599 a86.0,86.0 0 0,1 12.851231095245387,41.99856678651699" fill="none" id="id15" stroke="none" /><text fill="#e1ed5e" style="font-size:6.75px; font-family:Arial;" text-anchor="middle"><textPath startOffset="22.20632615414155" xlink:href="#id15">March</textPath></text><path d="M 118.89224826269711 90.83032412892265 l 13.136283684471426 -6.375919999683934 a35.6018596377749,35.6018596377749 0 0,0 0.26284650575394763,0.5536217753341104 l -13.24408838406713 6.148855808709284" fill="#ff0000" stroke="none" /><line stroke="#e1ed5e" stroke-width="0.3" x1="184.98032266829074" x2="189.97916517819016" y1="98.17113171792111" y2="98.06355123074" /><path d="M 185.9800911702706 98.14961562048488 a86.0,86.0 0 0,1 -9.607161424134198,41.387399972396054" fill="none" id="id16" stroke="none" /><text fill="#e1ed5e" style="font-size:6.75px; font-family:Arial;" text-anchor="middle"><textPath startOffset="21.466115282336823" xlink:href="#id16">April</textPath></text><path d="M 120.8583938346157 102.4346265915055 l 54.96375661264501 6.415461539330348 a76.33690168175939,76.33690168175939 0 0,0 -0.16357358878337683,1.303842444093133 l -54.84518151461478 -7.360621737710876" fill="#41ffcd" stroke="none" /><path d="M 120.41448212921028 104.9243191809786 l 31.778455816401994 7.665502290390107 a53.689909443725746,53.689909443725746 0 0,0 -0.2244460278896135,0.8965503117709268 l -31.641798474217318 -8.211380441558429" fill="#ceff1d" stroke="none" /><path d="M 120.02730092923936 106.31721596034902 l 59.4173487530027 18.74202745493716 a83.30316946959897,83.30316946959897 0 0,0 -0.4431242640314762,1.3637962523325842 l -59.08593223795497 -19.762022607247538" fill="#4cdaff" stroke="none" /><line stroke="#e1ed5e" stroke-width="0.3" x1="174.80103733775053" x2="179.2010983576182" y1="140.37084112569926" y2="142.7455964860345" /><path d="M 175.68104954172406 140.8457921977663 a86.0,86.0 0 0,1 -30.038265399797805,32.042727171017184" fill="none" id="id17" stroke="none" /><text fill="#e1ed5e" style="font-size:6.75px; font-family:Arial;" text-anchor="middle"><textPath startOffset="22.206326154141568" xlink:href="#id17">May</textPath></text><path d="M 118.48025628344425 109.97397251340804 l 54.39811661597089 29.35918807548804 a82.81518434670116,82.81518434670116 0 0,0 -0.687853419318417,1.2486537565945808 l -53.88468678720097 -30.291212350480425" fill="#4be0ff" stroke="none" /><path d="M 118.12598468904814 110.60418214915192 l 33.98534195894347 19.882327096502564 a60.37398124191461,60.37398124191461 0 0,0 -0.5324959969637658,0.8924939200237905 l -33.63806508628148 -20.46438311041246" fill="#70ff27" stroke="none" /><path d="M 116.93607887273984 112.41649034213515 l 42.31691828947925 31.024159204641194 a73.47113518758086,73.47113518758086 0 0,0 -0.7565383432112445,1.0135067424605781 l -41.776618679572906 -31.747978826611085" fill="#3cffa6" stroke="none" /><path d="M 116.27256486870786 113.27417163493432 l 47.53567752914516 38.77672311622923 a82.34553686934024,82.34553686934024 0 0,0 -0.9054244692402079,1.090642100339522 l -46.86115706001141 -39.58922647368252" fill="#4ae5ff" stroke="none" /><path d="M 115.32070863581623 114.36230785411682 l 45.96212590744871 43.08692356235047 a84.0,84.0 0 0,0 -0.997973794484142,1.0463715336699715 l -45.21364556158561 -43.87170221260295" fill="#4dd2ff" stroke="none" /><path d="M 114.81725581225074 114.88116024355365 l 43.003347136217684 43.18881362729288 a81.94720245795602,81.94720245795602 0 0,0 -1.008145888461113,0.9866829384417779 l -42.253551295380774 -43.92264666865724" fill="#4aeaff" stroke="none" /><path d="M 114.29624159901734 115.38237550388516 l 41.216591622962554 44.34795571573695 a81.54377425614489,81.54377425614489 0 0,0 -1.0363842898636861,0.9467124763561382 l -40.447107783632 -45.05086095867967" fill="#49efff" stroke="none" /><line stroke="#e1ed5e" stroke-width="0.3" x1="143.8653032363475" x2="146.44561519142675" y1="172.8068346515853" y2="177.08958963109032" /><path d="M 144.38136562736335 173.6633856474863 a86.0,86.0 0 0,1 -40.68145358897372,12.25698825130547" fill="none" id="id18" stroke="none" /><text fill="#e1ed5e" style="font-size:6.75px; font-family:Arial;" text-anchor="middle"><textPath startOffset="21.466115282336833" xlink:href="#id18">June</textPath></text><line stroke="#e1ed5e" stroke-width="0.3" x1="102.19456741930631" x2="102.32365962044197" y1="184.97166512339345" y2="189.96999836594603" /><path d="M 102.22038585953345 185.97133177190398 a86.0,86.0 0 0,1 -42.740103519485714,-10.115201625700543" fill="none" id="id19" stroke="none" /><text fill="#e1ed5e" style="font-size:6.75px; font-family:Arial;" text-anchor="middle"><textPath startOffset="22.20632615414155" xlink:href="#id19">July</textPath></text><line stroke="#e1ed5e" stroke-width="0.3" x1="58.666819895761336" x2="56.23545636021788" y1="174.27360380694188" y2="178.64263932499728" /><path d="M 58.180547188652646 175.14741091055294 a86.0,86.0 0 0,1 -31.652253787137756,-30.449443065178592" fill="none" id="id20" stroke="none" /><text fill="#e1ed5e" style="font-size:6.75px; font-family:Arial;" text-anchor="middle"><textPath startOffset="22.20632615414155" xlink:href="#id20">August</textPath></text><line stroke="#e1ed5e" stroke-width="0.3" x1="26.63291911575756" x2="22.317208475507996" y1="142.92168965132927" y2="145.44649492493687" /><path d="M 25.769776987707644 143.4266507060508 a86.0,86.0 0 0,1 -11.730757126820373,-40.83630448921669" fill="none" id="id21" stroke="none" /><text fill="#e1ed5e" style="font-size:6.75px; font-family:Arial;" text-anchor="middle"><textPath startOffset="21.46611528233685" xlink:href="#id21">September</textPath></text><line stroke="#e1ed5e" stroke-width="0.3" x1="15.007084014347285" x2="10.007500721073583" y1="101.09737516637583" y2="101.16192664675087" /><path d="M 14.007167355692545 101.11028546245083 a86.0,86.0 0 0,1 10.666146001902534,-42.60595125391555" fill="none" id="id22" stroke="none" /><text fill="#e1ed5e" style="font-size:6.75px; font-family:Arial;" text-anchor="middle"><textPath startOffset="22.20632615414155" xlink:href="#id22">October</textPath></text><line stroke="#e1ed5e" stroke-width="0.3" x1="26.266209847984243" x2="21.928928074336255" y1="57.711370442889674" y2="55.22380399835377" /><path d="M 25.398753493254645 57.213857153982495 a86.0,86.0 0 0,1 29.58750427330803,-30.492523968695096" fill="none" id="id23" stroke="none" /><text fill="#e1ed5e" style="font-size:6.75px; font-family:Arial;" text-anchor="middle"><textPath startOffset="21.46611528233685" xlink:href="#id23">November</textPath></text><line stroke="#e1ed5e" stroke-width="0.3" x1="56.762969772571076" x2="54.21961505331055" y1="26.818313649435495" y2="22.513508569990535" /><path d="M 56.25429882871897 25.957352633546506 a86.0,86.0 0 0,1 42.265352541879196,-11.944610805530505" fill="none" id="id24" stroke="none" /><text fill="#e1ed5e" style="font-size:6.75px; font-family:Arial;" text-anchor="middle"><textPath startOffset="22.20632615414155" xlink:href="#id24">December</textPath></text></svg>