<?xml version="1.0" encoding="utf-8" ?>
<svg baseProfile="full" height="200mm" version="1.1" viewBox="0,0,200,200" width="200mm" xmlns="http://www.w3.org/2000/svg" xmlns:ev="http://www.w3.org/2001/xml-events" xmlns:xlink="http://www.w3.org/1999/xlink"><defs /><rect fill="#1a1a1a" height="200" width="200" x="0" y="0" /><text alignment-baseline="middle" fill="#e1ed5e" style="dominant-baseline: central; font-size:9.0px; font-family:Arial;" text-anchor="middle" x="100.0" y="100.0">2022</text><line stroke="#e1ed5e" stroke-width="0.3" x1="100.0" x2="100.0" y1="15.0" y2="10.0" /><path d="M 100.0 14.0 a86.0,86.0 0 0,1 42.46469731375804,11.215312516191453" fill="none" id="id1" stroke="none" /><text fill="#e1ed5e" style="font-size:6.75px; font-family:Arial;" text-anchor="middle"><textPath startOffset="22.20632615414155" xlink:href="#id1">January</textPath></text><line stroke="#e1ed5e" stroke-width="0.3" x1="143.23703022742887" x2="145.7803849466894" y1="26.818313649435467" y2="22.513508569990506" /><path d="M 143.74570117128098 25.957352633546478 a86.0,86.0 0 0,1 28.547481713284135,27.462654790039114" fill="none" id="id2" stroke="none" /><text fill="#e1ed5e" style="font-size:6.75px; font-family:Arial;" text-anchor="middle"><textPath startOffset="19.985693538727396" xlink:href="#id2">February</textPath></text><line stroke="#e1ed5e" stroke-width="0.3" x1="172.23445277983987" x2="176.4835382374775" y1="55.19839476539836" y2="52.563006222186495" /><path d="M 173.08426987136738 54.67131705675599 a86.0,86.0 0 0,1 12.851231095245387,41.99856678651699" fill="none" id="id3" stroke="none" /><text fill="#e1ed5e" style="font-size:6.75px; font-family:Arial;" text-anchor="middle"><textPath startOffset="22.20632615414155" xlink:href="#id3">March</textPath></text><line stroke="#e1ed5e" stroke-width="0.3" x1="184.98032266829074" x2="189.97916517819016" y1="98.17113171792111" y2="98.06355123074" /><path d="M 185.9800911702706 98.14961562048488 a86.0,86.0 0 0,1 -9.607161424134198,41.387399972396054" fill="none" id="id4" stroke="none" /><text fill="#e1ed5e" style="font-size:6.75px; font-family:Arial;" text-anchor="middle"><textPath startOffset="21.466115282336823" xlink:href="#id4">April</textPath></text><line stroke="#e1ed5e" stroke-width="0.3" x1="174.80103733775053" x2="179.2010983576182" y1="140.37084112569926" y2="142.7455964860345" /><path d="M 175.68104954172406 140.8457921977663 a86.0,86.0 0 0,1 -30.038265399797805,32.042727171017184" fill="none" id="id5" stroke="none" /><text fill="#e1ed5e" style="font-size:6.75px; font-family:Arial;" text-anchor="middle"><textPath startOffset="22.206326154141568" xlink:href="#id5">May</textPath></text><path d="M 116.93607887273984 112.41649034213513 l 19.849903256631467 14.55272698776758 a45.61301529837674,45.61301529837674 0 0,0 -0.4696809833494514,0.62921443136592 l -19.596461006586924 -14.892254298642815" fill="#ff0200" stroke="none" /><path d="M 116.71984013943494 112.70617746262582 l 25.12320484807595 19.092281778260045 a52.55456615672077,52.55456615672077 0 0,0 -0.5535577027585072,0.7155479511446365 l -24.790840328099375 -19.521907723517934" fill="#ff9d0e" stroke="none" /><path d="M 115.56566222782051 114.09645910891815 l 19.37845873872248 17.549375491138854 a47.14393320098096,47.14393320098096 0 0,0 -0.5499083704185674,0.5968169278671605 l -19.073503960308187 -17.88034367380735" fill="#ff2603" stroke="none" /><path d="M 115.32070863581623 114.36230785411682 l 18.04025518801064 16.9117307127245 a45.72766553777881,45.72766553777881 0 0,0 -0.5432739510671343,0.5696205657132565 l -17.746474685564543 -17.21975839502026" fill="#ff0500" stroke="none" /><path d="M 115.07121518719521 114.62390073753431 l 22.317296341660068 21.654917826922237 a52.09657830199696,52.09657830199696 0 0,0 -0.630019736300976,0.6382066666318744 l -21.941235980303556 -22.035864987534776" fill="#ff930d" stroke="none" /><path d="M 114.81725581225074 114.88116024355365 l 17.376922478170613 17.45186633841255 a45.62772976760481,45.62772976760481 0 0,0 -0.561329817068814,0.5493793702674133 l -17.073942708726005 -17.74839581160253" fill="#ff0200" stroke="none" /><path d="M 114.55890576462653 115.13401014063108 l 17.032712594888306 17.70553703011119 a45.568258787808006,45.568258787808006 0 0,0 -0.569959460607778,0.5389322450804612 l -16.72541729988972 -17.996103911937578" fill="#ff0100" stroke="none" /><path d="M 114.0293411484842 115.62618273729858 l 20.51850533788731 22.853953761093425 a51.71338899918253,51.71338899918253 0 0,0 -0.6674909307307032,0.5889831385300932 l -20.12207205425002 -23.203760041395807" fill="#ff8b0c" stroke="none" /><path d="M 113.75828350139079 115.86535959552629 l 16.21213594533556 18.695018645189663 a45.7454455214294,45.7454455214294 0 0,0 -0.5993405405861489,0.5107710111028632 l -15.887929928172365 -18.971314046515474" fill="#ff0500" stroke="none" /><path d="M 113.20401910651253 116.32954008644616 l 19.287536142594345 23.853085342320476 a51.67537662034334,51.67537662034334 0 0,0 -0.6964918173046265,0.5533352229965537 l -18.874086832572367 -24.181554479322156" fill="#ff8a0c" stroke="none" /><path d="M 112.92097659922987 116.55440617244103 l 18.87559576362447 24.183487727736537 a51.677829031881345,51.677829031881345 0 0,0 -0.7059468820510307,0.5412899660373901 l -18.456520153079946 -24.5048170356013" fill="#ff8b0c" stroke="none" /><path d="M 112.34349029814194 116.9893568818739 l 14.417075582957677 19.843402178449345 a45.527793997430805,45.527793997430805 0 0,0 -0.6379802665128321,0.4551819807302337 l -14.07336798859596 -20.0886284210238" fill="#ff0000" stroke="none" /><path d="M 111.7513745106137 117.40417183066458 l 17.258244540680874 25.56002731513256 a51.840914399159175,51.840914399159175 0 0,0 -0.7438561499486843,0.49298729494988824 l -16.815713691992226 -25.853312631173768" fill="#ff8e0d" stroke="none" /><path d="M 111.45004920935366 117.60387380957326 l 13.418339812666598 20.630021450317376 a45.60994978395422,45.60994978395422 0 0,0 -0.6618181765188821,0.4224036730976063 l -13.061239834100785 -20.85793955223879" fill="#ff0200" stroke="none" /><line stroke="#e1ed5e" stroke-width="0.3" x1="143.8653032363475" x2="146.44561519142675" y1="172.8068346515853" y2="177.08958963109032" /><path d="M 144.38136562736335 173.6633856474863 a86.0,86.0 0 0,1 -40.68145358897372,12.25698825130547" fill="none" id="id6" stroke="none" /><text fill="#e1ed5e" style="font-size:6.75px; font-family:Arial;" text-anchor="middle"><textPath startOffset="21.466115282336833" xlink:href="#id6">June</textPath></text><path d="M 110.8373102113329 117.98757091392108 l 15.987658676242319 26.536025875289965 a51.980088753941374,51.980088753941374 0 0,0 -0.7703749374772775,0.4551510920177312 l -15.528515867736658 -26.807295539601444" fill="#ff910d" stroke="none" /><path d="M 110.21172684928248 118.3499491758327 l 13.517151804846979 24.289628216836345 a48.797471680485806,48.797471680485806 0 0,0 -0.7374859214224654,0.40213612594266335 l -13.097043071555863 -24.51870499453878" fill="#ff4b07" stroke="none" /><path d="M 109.2508944713604 118.85261126421891 l 13.828807039664689 28.182044901043337 a52.39209389232745,52.39209389232745 0 0,0 -0.8130437950691379,0.390310430223251 l -13.341650576595319 -28.415909607766146" fill="#ff9a0e" stroke="none" /><path d="M 108.92500713936063 119.00905698771935 l 13.032355251521714 27.757152436084993 a51.66434076842228,51.66434076842228 0 0,0 -0.8082566390478473,0.37103098050211253 l -12.552630616706448 -27.97737048692118" fill="#ff8a0c" stroke="none" /><path d="M 108.59647513512805 119.15986991738527 l 12.536066113643313 27.94045143359444 a51.62387597804507,51.62387597804507 0 0,0 -0.8138856204934768,0.3567835381307261 l -12.053259818492084 -28.152099525019622" fill="#ff890c" stroke="none" /><path d="M 108.2653958097858 119.30500536409082 l 14.51946165126129 33.912264035734566 a57.8897874576667,57.8897874576667 0 0,0 -0.9194236343217946,0.3843191537139761 l -13.933566557442033 -34.157168232468514" fill="#f5ff19" stroke="none" /><path d="M 107.59598834532513 119.57807347666477 l 13.372150684526877 34.465685930629824 a57.968877729767605,57.968877729767605 0 0,0 -0.9333811347400449,0.35292487890978774 l -12.776899329026557 -34.69075905964624" fill="#f3ff19" stroke="none" /><path d="M 106.91757812671514 119.82793768551818 l 12.148981437946663 34.82277214388492 a57.88120401728366,57.88120401728366 0 0,0 -0.9435470490072174,0.32010238806227076 l -11.547764656002219 -35.026737518845316" fill="#f5ff19" stroke="none" /><path d="M 105.53697534728816 120.25689768951611 l 9.711691811836696 35.53000240841584 a57.833381992292416,57.833381992292416 0 0,0 -0.9625390348018845,0.2542153074723294 l -9.098662334223313 -35.69190906519175" fill="#f6ff19" stroke="none" /><path d="M 104.48393922423573 120.51570834832081 l 7.870981135617573 36.01269895021572 a57.862810930748566,57.862810930748566 0 0,0 -0.9748741225236363,0.20429435089837739 l -7.249915551664559 -36.14284928184064" fill="#f5ff19" stroke="none" /><path d="M 104.13013068566511 120.58985236759428 l 7.2536535538616755 36.16148426442255 a57.881817120168165,57.881817120168165 0 0,0 -0.9785676002427476,0.1875448095970402 l -6.6301183390472245 -36.280986272368054" fill="#f5ff19" stroke="none" /><path d="M 101.62511606390274 120.93702456842531 l 2.91232261574441 37.52062484115038 a58.633481256568956,58.633481256568956 0 0,0 -1.0069246098233038,0.06944341645829688 l -2.2660352451421764 -37.565196602124956" fill="#e6ff1a" stroke="none" /><line stroke="#e1ed5e" stroke-width="0.3" x1="102.19456741930631" x2="102.32365962044197" y1="184.97166512339345" y2="189.96999836594603" /><path d="M 102.22038585953345 185.97133177190398 a86.0,86.0 0 0,1 -42.740103519485714,-10.115201625700543" fill="none" id="id7" stroke="none" /><text fill="#e1ed5e" style="font-size:6.75px; font-family:Arial;" text-anchor="middle"><textPath startOffset="22.20632615414155" xlink:href="#id7">July</textPath></text><line stroke="#e1ed5e" stroke-width="0.3" x1="58.666819895761336" x2="56.23545636021788" y1="174.27360380694188" y2="178.64263932499728" /><path d="M 58.180547188652646 175.14741091055294 a86.0,86.0 0 0,1 -31.652253787137756,-30.449443065178592" fill="none" id="id8" stroke="none" /><text fill="#e1ed5e" style="font-size:6.75px; font-family:Arial;" text-anchor="middle"><textPath startOffset="22.20632615414155" xlink:href="#id8">August</textPath></text><path d="M 82.24976979558568 111.22182372390057 l -26.618608386364052 16.82847645621139 a52.49202966250146,52.49202966250146 0 0,0 -0.47626608506214585,-0.7678925755430391 l 26.904339111094156 -16.367787549303085" fill="#ff9c0e" stroke="none" /><path d="M 82.05923443525364 110.91462005526583 l -32.92789405663261 20.032336499307668 a59.542712834287045,59.542712834287045 0 0,0 -0.5251642442722998,-0.8802054807912689 l 33.26783917660314 -19.46256892463029" fill="#d5ff1c" stroke="none" /><line stroke="#e1ed5e" stroke-width="0.3" x1="26.63291911575756" x2="22.317208475507996" y1="142.92168965132927" y2="145.44649492493687" /><path d="M 25.769776987707644 143.4266507060508 a86.0,86.0 0 0,1 -11.730757126820373,-40.83630448921669" fill="none" id="id9" stroke="none" /><text fill="#e1ed5e" style="font-size:6.75px; font-family:Arial;" text-anchor="middle"><textPath startOffset="21.46611528233685" xlink:href="#id9">September</textPath></text><path d="M 80.32549172779594 107.34259656027581 l -37.261630025046045 13.906173037051612 a60.77198411771575,60.77198411771575 0 0,0 -0.35732693567208185,-0.9832102611572947 l 37.49548122172335 -13.262714978888202" fill="#beff1f" stroke="none" /><path d="M 79.4281124754447 104.21870165774334 l -38.05066455187072 7.803095434563576 a59.84252014480906,59.84252014480906 0 0,0 -0.1982499113037808,-1.0108720266204967 l 38.179344396150164 -7.146959680875126" fill="#cfff1d" stroke="none" /><path d="M 79.18660465613746 102.79330883721812 l -37.97782306423173 5.096899714390269 a59.318317178558914,59.318317178558914 0 0,0 -0.1271064165262816,-1.0131632008332048 l 38.05993099000486 -4.442418759269656" fill="#d9ff1c" stroke="none" /><path d="M 79.1416061653843 102.43462659150553 l -38.28585835519937 4.468789378954595 a59.54577834870956,59.54577834870956 0 0,0 -0.11006809861073336,-1.0190938930837963 l 38.35710875531115 -3.809099163986017" fill="#d5ff1c" stroke="none" /><path d="M 79.07016306316243 101.71520430193888 l -38.26667372219187 3.1359615264691234 a59.3949550391218,59.3949550391218 0 0,0 -0.07473424333860355,-1.019689373722404 l 38.314984524194806 -2.4767990162499585" fill="#d8ff1c" stroke="none" /><line stroke="#e1ed5e" stroke-width="0.3" x1="15.007084014347285" x2="10.007500721073583" y1="101.09737516637583" y2="101.16192664675087" /><path d="M 14.007167355692545 101.11028546245083 a86.0,86.0 0 0,1 10.666146001902526,-42.60595125391555" fill="none" id="id10" stroke="none" /><text fill="#e1ed5e" style="font-size:6.75px; font-family:Arial;" text-anchor="middle"><textPath startOffset="22.20632615414155" xlink:href="#id10">October</textPath></text><path d="M 79.16333360222342 97.38593545837743 l -38.126743834352716 -4.7831916700237205 a59.425610183346954,59.425610183346954 0 0,0 0.1360676712402311,-1.0138621971575605 l 38.03876016405465 5.438772209245941" fill="#d7ff1c" stroke="none" /><path d="M 79.54389044137918 95.25157060432595 l -37.14313972262366 -8.621951109574804 a59.13070769590097,59.13070769590097 0 0,0 0.23868307190370547,-0.9894954260367126 l 36.98922385045914 9.260031767270911" fill="#ddff1b" stroke="none" /><path d="M 79.81627453868168 94.20196356495316 l -36.53659727251313 -10.495610565286979 a59.014218147845384,59.014218147845384 0 0,0 0.288872076769609,-0.973933036865347 l 36.35051929863181 11.122972988898864" fill="#dfff1b" stroke="none" /><path d="M 80.02781315780177 93.51064311812611 l -24.560565280282365 -7.980211410177806 a46.824506598154855,46.824506598154855 0 0,0 0.2556678402069493,-0.764414300201842 l 24.419560146303645 8.401798813301971" fill="#ff1e03" stroke="none" /><path d="M 80.2630227832202 92.82701384747504 l -35.60400409524673 -12.939520856948855 a58.88240102767722,58.88240102767722 0 0,0 0.35440310990025947,-0.9496241363920954 l 35.37599639684484 13.550468130370291" fill="#e2ff1b" stroke="none" /><path d="M 80.38941819471856 92.48833698450439 l -35.256908430726114 -13.504852519392156 a58.75487562770057,58.75487562770057 0 0,0 0.36989397780385896,-0.9413398272459769 l 35.01922090304056 14.109741351533895" fill="#e4ff1a" stroke="none" /><path d="M 80.803312248108 91.48605970444005 l -34.571075770399 -15.332648989586579 a58.81863832768889,58.81863832768889 0 0,0 0.41844610883463434,-0.9219905336834919 l 34.30202734460101 15.925461532112143" fill="#e3ff1b" stroke="none" /><path d="M 81.26839172434947 90.50648371742162 l -33.60281649239012 -17.03051231995295 a58.672106738292655,58.672106738292655 0 0,0 0.46432146078700715,-0.8969212716878627 l 33.304685598443 17.60640631390115" fill="#e6ff1a" stroke="none" /><line stroke="#e1ed5e" stroke-width="0.3" x1="26.266209847984243" x2="21.928928074336255" y1="57.71137044288968" y2="55.22380399835378" /><path d="M 25.398753493254645 57.2138571539825 a86.0,86.0 0 0,1 29.58750427330803,-30.4925239686951" fill="none" id="id11" stroke="none" /><text fill="#e1ed5e" style="font-size:6.75px; font-family:Arial;" text-anchor="middle"><textPath startOffset="21.46611528233685" xlink:href="#id11">November</textPath></text><path d="M 82.15384107792192 88.93136811851018 l -32.20665851948308 -19.97537110599123 a58.89834170267429,58.89834170267429 0 0,0 0.541787344944393,-0.8569774691897164 l 31.85804357829272 20.52679622289516" fill="#e1ff1b" stroke="none" /><path d="M 82.95767976084542 87.72973835380427 l -41.76293914497487 -30.068804202238855 a72.46140371365176,72.46140371365176 0 0,0 0.7375100534928968,-1.0059628841338435 l 41.23916647896834 30.783229530044203" fill="#36ff6e" stroke="none" /><path d="M 83.39014120810768 87.1503855733568 l -29.729668718747597 -22.999279214475504 a58.58749854023122,58.58749854023122 0 0,0 0.623945475082352,-0.7923473906995485 l 29.329369163071274 23.507618999128095" fill="#e7ff1a" stroke="none" /><path d="M 84.07557802195018 86.31012108654704 l -28.539082188560894 -24.534427686041983 a58.635320565222464,58.635320565222464 0 0,0 0.6645563512497307,-0.7597027896595564 l 28.112533973733317 25.02204603190448" fill="#e6ff1a" stroke="none" /><path d="M 85.57189188830299 84.74124197986013 l -25.18853149466152 -26.6386766708602 a57.66171318463155,57.66171318463155 0 0,0 0.7270650980082207,-0.6757277701817616 l 24.726258512858447 27.068309027116605" fill="#f9ff18" stroke="none" /><path d="M 85.83668400450813 84.49514656593477 l -25.257610289519867 -27.649989999403587 a58.449550391218025,58.449550391218025 0 0,0 0.7486803254853924,-0.672172588403286 l 24.777918976438503 28.080661596576153" fill="#eaff1a" stroke="none" /><path d="M 86.37877921826538 84.01681056812373 l -24.432060643682984 -28.66866778950665 a58.66720191521662,58.66720191521662 0 0,0 0.774246325642873,-0.6484090315935853 l 23.934956781081002 29.084977978494045" fill="#e6ff1a" stroke="none" /><path d="M 86.65592168130627 83.78471172551755 l -31.636670090734636 -38.44384852322847 a70.7876328389583,70.7876328389583 0 0,0 0.9475315721283399,-0.7661713015904855 l 30.970235120041796 38.98272592208309" fill="#33ff4e" stroke="none" /><path d="M 89.00827224532344 82.1063720568725 l -23.518035741831895 -38.28542617774266 a65.9318579936938,65.9318579936938 0 0,0 0.9721430609332796,-0.5857053168293531 l 22.855530614680966 38.68457810403063" fill="#64ff29" stroke="none" /><line stroke="#e1ed5e" stroke-width="0.3" x1="56.76296977257108" x2="54.21961505331056" y1="26.818313649435495" y2="22.513508569990535" /><path d="M 56.25429882871898 25.957352633546506 a86.0,86.0 0 0,1 42.26535254187918,-11.944610805530505" fill="none" id="id12" stroke="none" /><text fill="#e1ed5e" style="font-size:6.75px; font-family:Arial;" text-anchor="middle"><textPath startOffset="22.20632615414155" xlink:href="#id12">December</textPath></text><path d="M 89.94658935756843 81.56283822128135 l -27.900181070506115 -51.16673041100898 a79.27910778932618,79.27910778932618 0 0,0 1.203739820259198,-0.642996123832529 l 27.015296203718613 51.639405261343256" fill="#44ffe4" stroke="none" /><path d="M 90.58718382345135 81.22770947309562 l -28.23844852964592 -56.31687158071317 a84.0,84.0 0 0,0 1.2981149319583007,-0.6369793594606814 l 27.264862330677193 56.79460610030868" fill="#4dd2ff" stroke="none" /><path d="M 91.56875222667455 80.76684994638697 l -20.51615112003259 -46.800927172675614 a72.10028611467945,72.10028611467945 0 0,0 1.14095695923209,-0.4884982258292746 l 19.70751040301019 47.147144926467675" fill="#35ff67" stroke="none" /><path d="M 92.23578459929587 80.48803036053334 l -13.849644766793801 -34.805042655381705 a58.45936003737008,58.45936003737008 0 0,0 0.9381804045685143,-0.36399942146548864 l 13.24848119722561 35.03828478073774" fill="#eaff1a" stroke="none" /><path d="M 92.57280143429618 80.3572730644239 l -13.286428171095695 -35.13864321860198 a58.56665304215812,58.56665304215812 0 0,0 0.946040182487896,-0.3484345831718164 l 12.67960566283523 35.36214106958012" fill="#e8ff1a" stroke="none" /><path d="M 93.25333710446033 80.11325718540243 l -20.146624263739003 -59.38502360629071 a83.70938923274554,83.70938923274554 0 0,0 1.3685176791998974,-0.4511787624661357 l 19.121423762296697 59.72301609301608" fill="#4cd6ff" stroke="none" /><path d="M 94.98787191387505 79.60689891045804 l -13.405672025752624 -54.54434126518503 a77.1675814550975,77.1675814550975 0 0,0 1.2926536804901227,-0.30592936220662775 l 12.464794658299967 54.767016539532534" fill="#3fffc1" stroke="none" /><path d="M 96.04723909329186 79.375362276772 l -11.70941370314283 -61.097147355630426 a83.20909727899101,83.20909727899101 0 0,0 1.409026712430151,-0.25749062542452367 l 10.655991869609785 61.28965346240568" fill="#4bdeff" stroke="none" /></svg>